<svg width="1200" height="760" viewBox="0 0 1200 760" fill="none" xmlns="http://www.w3.org/2000/svg">
  <rect width="1200" height="760" rx="36" fill="#07111F"/>
  <rect x="60" y="80" width="1080" height="600" rx="28" fill="url(#bg)"/>
  <rect x="110" y="140" width="440" height="350" rx="22" fill="#0E1830" stroke="rgba(255,255,255,0.1)"/>
  <rect x="600" y="140" width="470" height="260" rx="22" fill="#111C35" stroke="rgba(255,255,255,0.1)"/>
  <rect x="600" y="450" width="470" height="160" rx="22" fill="#111C35" stroke="rgba(255,255,255,0.1)"/>
  <path d="M142 440C188 339 258 290 320 290C404 290 446 364 518 364C556 364 584 355 624 320" stroke="#7C9CFF" stroke-width="12" stroke-linecap="round"/>
  <path d="M642 332C688 270 744 252 794 252C870 252 904 302 966 302C1000 302 1024 292 1044 278" stroke="#4DD4C0" stroke-width="10" stroke-linecap="round"/>
  <rect x="142" y="174" width="114" height="22" rx="11" fill="#7C9CFF" fill-opacity="0.6"/>
  <rect x="142" y="214" width="190" height="14" rx="7" fill="white" fill-opacity="0.1"/>
  <rect x="142" y="242" width="160" height="14" rx="7" fill="white" fill-opacity="0.08"/>
  <circle cx="935" cy="220" r="58" fill="#7C9CFF" fill-opacity="0.18"/>
  <circle cx="935" cy="220" r="24" fill="#7C9CFF" fill-opacity="0.35"/>
  <defs>
    <linearGradient id="bg" x1="120" y1="100" x2="1084" y2="670" gradientUnits="userSpaceOnUse">
      <stop stop-color="#132341"/>
      <stop offset="1" stop-color="#091121"/>
    </linearGradient>
  </defs>
</svg>
