<svg width="1200" height="760" viewBox="0 0 1200 760" fill="none" xmlns="http://www.w3.org/2000/svg">
  <rect width="1200" height="760" rx="40" fill="#07111F"/>
  <rect x="86" y="90" width="1028" height="580" rx="32" fill="url(#bg)"/>
  <rect x="150" y="170" width="300" height="380" rx="24" fill="#0E1830" stroke="rgba(255,255,255,0.12)"/>
  <rect x="492" y="170" width="500" height="116" rx="20" fill="#111C35" stroke="rgba(255,255,255,0.12)"/>
  <rect x="492" y="314" width="500" height="220" rx="20" fill="#111C35" stroke="rgba(255,255,255,0.12)"/>
  <path d="M180 480L255 395L325 430L390 315" stroke="#7C9CFF" stroke-width="12" stroke-linecap="round"/>
  <circle cx="255" cy="395" r="16" fill="#4DD4C0"/>
  <circle cx="325" cy="430" r="16" fill="#7C9CFF"/>
  <circle cx="390" cy="315" r="16" fill="#4DD4C0"/>
  <rect x="532" y="214" width="170" height="16" rx="8" fill="#7C9CFF" fill-opacity="0.7"/>
  <rect x="532" y="244" width="300" height="12" rx="6" fill="white" fill-opacity="0.1"/>
  <rect x="532" y="376" width="190" height="14" rx="7" fill="white" fill-opacity="0.1"/>
  <rect x="532" y="410" width="258" height="14" rx="7" fill="white" fill-opacity="0.08"/>
  <defs>
    <linearGradient id="bg" x1="120" y1="110" x2="1040" y2="660" gradientUnits="userSpaceOnUse">
      <stop stop-color="#142647"/>
      <stop offset="1" stop-color="#091121"/>
    </linearGradient>
  </defs>
</svg>
